<svg t="1756778065856" class="icon" viewBox="0 0 1024 1024" version="1.1" xmlns="http://www.w3.org/2000/svg" p-id="4439" width="16" height="16"><path d="M986.81856 157.82912H352.43008c-20.79744 0-37.59104 16.80384-37.59104 37.59104v277.23776H37.60128C16.80384 472.66816 0 489.472 0 510.26944v319.5392c0 20.79744 16.80384 37.59104 37.59104 37.59104h634.37824c20.79744 0 37.59104-16.7936 37.59104-37.59104V552.56064h277.248c20.79744 0 37.59104-16.80384 37.59104-37.59104V195.4304c0.01024-20.79744-16.7936-37.60128-37.5808-37.60128z m-592.08704 79.88224h234.9568v234.9568H394.73152V237.71136z m-79.89248 549.80608H79.88224V552.56064h234.9568v234.9568z m314.84928 0H394.73152V552.56064h234.9568v234.9568z m314.8288-314.84928H709.56032V237.71136h234.9568v234.9568z m0 0" fill="currentColor" p-id="4440"></path></svg>
