<svg t="1756778774713" class="icon" viewBox="0 0 1024 1024" version="1.1" xmlns="http://www.w3.org/2000/svg" p-id="43925" width="16" height="16"><path d="M507.284 149.528c54.496 0 108.994-0.308 163.487 0.059 153.708 1.034 289.28 103.536 332.606 251.22 13.103 44.663 16.884 90.209 12.339 136.479-9.979 101.593-52.342 187.422-126.895 256.908-60.159 56.071-131.513 89.941-212.888 101.891-19.538 2.869-39.458 3.757-59.234 4.238-28.313 0.689-56.659 0.32-84.988 0.11-19.982-0.148-36.539-15.401-38.995-35.356-2.369-19.249 10.081-37.881 29-42.961 3.966-1.065 8.206-1.525 12.324-1.545 29.497-0.14 58.995 0.041 88.492-0.13 143.802-0.83 273.473-104.447 306.017-244.447 13.188-56.734 13.922-113.34-7.249-168.174-37.723-97.702-108.925-156.199-212.091-174.958-14.324-2.604-29.174-3.19-43.783-3.223-114.49-0.253-228.982-0.13-343.474-0.152-22.971-0.005-40.825-16.734-41.414-38.661-0.615-22.862 17.158-41.243 40.26-41.292 46.662-0.101 93.326-0.033 139.989-0.034h46.496l0.001 0.028z" fill="currentColor" p-id="43926"></path><path d="M419.33 732.498c-78.32-0.001-156.642 0.001-234.962-0.002-21.225-0.001-39.289-15.684-40.812-35.415-1.719-22.264 12.084-40.827 33.687-44.144 7.66-1.177 15.627-0.378 23.455-0.426 6.999-0.042 14.021 0.365 20.993-0.066 71.17-4.408 142.406-1.208 213.606-1.813 71.317-0.606 142.645 0.073 213.965-0.203 57.55-0.223 107.114-42.614 116.208-100.177 4.391-27.79 4.222-55.816-6.337-82.688-18.077-46.008-62.321-76.038-112.021-76.054-132.479-0.04-264.958-0.161-397.437 0.154-18.516 0.044-38.504-12.942-41.011-35.289-2.448-21.822 11.222-39.971 32.782-44.354 3.217-0.654 6.624-0.437 9.946-0.509 31.207-0.686 62.413-1.845 93.622-1.922 99.982-0.247 199.967-0.095 299.95-0.091 96.793 0.004 176.559 63.354 197.917 157.788 2.875 12.714 4.129 26 4.378 39.055 0.338 17.767 0.469 35.767-1.911 53.314-7.896 58.229-36.829 104.181-84.883 137.761-33.857 23.659-71.873 35.017-113.171 35.059-75.987 0.079-151.976 0.024-227.964 0.022zM82.679 390.737c-12.478 0-25.136 1.344-37.392-0.302-20.544-2.758-34.359-21.766-32.679-42.378 1.656-20.319 18.812-36.341 39.463-36.512 20.498-0.17 40.999-0.18 61.496 0.003 22.452 0.2 39.999 17.992 39.926 40.145-0.073 22.063-17.833 39.625-40.313 39.79-10.166 0.074-20.332 0.012-30.498 0.012l-0.003-0.758zM367.212 820.508c10.166 0.004 20.334-0.117 30.498 0.028 22.411 0.322 39.911 18.116 39.782 40.3-0.126 21.849-17.797 39.485-39.955 39.631-20.331 0.133-40.665 0.128-60.996 0.001-22.394-0.14-39.987-17.849-40.029-40.056-0.042-22.018 17.75-39.71 40.202-39.894 10.165-0.081 20.332-0.013 30.498-0.01z" fill="currentColor" p-id="43927"></path></svg>
