<svg t="1756778918048" class="icon" viewBox="0 0 1024 1024" version="1.1" xmlns="http://www.w3.org/2000/svg" p-id="51347" width="16" height="16"><path d="M660.970667 322.026667c25.536-9.28 50.282667 15.466667 41.002666 41.002666l-77.056 212.096a83.2 83.2 0 0 1-49.792 49.792l-212.096 77.056c-25.536 9.28-50.282667-15.466667-41.002666-41.002666l77.056-212.096a83.2 83.2 0 0 1 49.792-49.792l212.096-77.056z m-190.229334 137.216a19.2 19.2 0 0 0-11.498666 11.498666l-53.653334 147.669334 147.669334-53.653334a19.2 19.2 0 0 0 11.498666-11.498666l53.653334-147.669334-147.669334 53.653334zM512 960C264.576 960 64 759.424 64 512S264.576 64 512 64s448 200.576 448 448-200.576 448-448 448z m0-64c212.074667 0 384-171.925333 384-384S724.074667 128 512 128 128 299.925333 128 512s171.925333 384 384 384z" fill="currentColor" p-id="51348"></path></svg>
