<svg t="1756778675770" class="icon" viewBox="0 0 1024 1024" version="1.1" xmlns="http://www.w3.org/2000/svg" p-id="38913" width="16" height="16"><path d="M828.032 195.648c-84.544-84.544-196.928-131.104-316.512-131.104S279.552 111.104 195.008 195.648a444.64 444.64 0 0 0-131.104 316.512c0 87.104 25.056 171.552 72.416 244.192a31.136 31.136 0 0 0 52.16-34.016 383.712 383.712 0 0 1-62.304-210.176c0-212.48 172.864-385.312 385.312-385.312s385.312 172.864 385.312 385.312-172.864 385.312-385.312 385.312c-70.368 0-139.2-19.136-199.04-55.328a31.136 31.136 0 1 0-32.224 53.28 446.88 446.88 0 0 0 231.264 64.32c119.552 0 231.968-46.56 316.512-131.104s131.104-196.928 131.104-316.512-46.56-231.968-131.104-316.512z m-333.728 10.144c-21.792 0-39.392 17.664-39.392 39.424v283.52c0 1.376 0.352 2.72 0.48 4.032 2.016 19.872 18.944 34.56 39.392 34.56l0.16-0.832h223.584a39.36 39.36 0 1 0 0-78.784h-184.8V245.216a39.36 39.36 0 0 0-39.392-39.424z" p-id="38914" fill="currentColor"></path></svg>
