<svg t="1756778582650" class="icon" viewBox="0 0 1024 1024" version="1.1" xmlns="http://www.w3.org/2000/svg" p-id="28602" width="16" height="16"><path d="M917.333333 112a5.333333 5.333333 0 0 0-5.333333-5.333333H112a5.333333 5.333333 0 0 0-5.333333 5.333333v793.92a5.333333 5.333333 0 0 0 8.8 4.106667l151.573333-126.56a5.333333 5.333333 0 0 1 3.413333-1.226667H912a5.333333 5.333333 0 0 0 5.333333-5.333333z m-80 595.573333H186.666667a5.333333 5.333333 0 0 1-5.333334-5.333333V186.666667a5.333333 5.333333 0 0 1 5.333334-5.333334h650.666666a5.333333 5.333333 0 0 1 5.333334 5.333334v515.573333a5.333333 5.333333 0 0 1-5.333334 5.333333z" p-id="28603" fill="currentColor"></path><path d="M247.68 317.28m5.333333 0l522.666667 0q5.333333 0 5.333333 5.333333l0 64q0 5.333333-5.333333 5.333334l-522.666667 0q-5.333333 0-5.333333-5.333334l0-64q0-5.333333 5.333333-5.333333Z" p-id="28604" fill="currentColor"></path><path d="M247.68 496.96m5.333333 0l256 0q5.333333 0 5.333334 5.333333l0 64q0 5.333333-5.333334 5.333334l-256 0q-5.333333 0-5.333333-5.333334l0-64q0-5.333333 5.333333-5.333333Z" p-id="28605" fill="currentColor"></path></svg>
