<svg t="1756287588482" class="icon" viewBox="0 0 1024 1024" version="1.1" xmlns="http://www.w3.org/2000/svg" p-id="16082" width="16" height="16"><path d="M512 512m-512 0a512 512 0 1 0 1024 0 512 512 0 1 0-1024 0Z" fill="currentColor" p-id="16083" data-spm-anchor-id="a313x.search_index.0.i9.5d8c3a81KMG8SA" class="selected"></path><path d="M739.6864 685.371733a38.4 38.4 0 1 1-54.314667 54.314667l-81.339733-81.339733a210.269867 210.269867 0 0 1-119.722667 37.179733C367.6416 695.5264 273.066667 600.951467 273.066667 484.292267 273.066667 367.6416 367.6416 273.066667 484.309333 273.066667c116.6592 0 211.234133 94.5664 211.234134 211.2256 0 44.458667-13.738667 85.717333-37.1968 119.748266l81.339733 81.3312z m-255.377067-66.653866c74.24 0 134.4256-60.1856 134.4256-134.4256s-60.1856-134.417067-134.4256-134.417067-134.4256 60.1856-134.4256 134.417067c0 74.24 60.1856 134.4256 134.4256 134.4256z" fill="#FFFFFF" p-id="16084"></path></svg>
