<svg t="1756778458363" class="icon" viewBox="0 0 1024 1024" version="1.1" xmlns="http://www.w3.org/2000/svg" p-id="22622" width="16" height="16"><path d="M201.728 195.047619l50.273524 51.516952c-68.534857 69.973333-107.690667 164.498286-107.690667 265.45981 0 97.670095 36.668952 189.342476 101.132191 258.56l6.534095 6.826667L201.703619 828.952381C119.954286 745.472 73.142857 632.490667 73.142857 512c0-116.931048 44.105143-226.816 121.465905-309.51619L201.728 195.047619z m620.592762 0.048762C904.070095 278.576762 950.857143 391.558095 950.857143 512.024381c0 116.906667-44.080762 226.791619-121.417143 309.491809l-7.143619 7.436191-50.273524-51.516952c68.510476-69.973333 107.666286-164.498286 107.666286-265.411048 0-97.670095-36.644571-189.342476-101.10781-258.56l-6.534095-6.826667 50.273524-51.541333z m-298.471619 183.442286c78.628571 0 142.336 65.194667 142.336 145.603047 0 75.02019-55.466667 136.777143-126.732191 144.725334l-65.072762 66.56-50.322285-51.492572 85.065143-86.991238h14.726095c39.326476 0 71.192381-32.597333 71.192381-72.801524 0-40.228571-31.865905-72.801524-71.192381-72.801524-39.302095 0-71.143619 32.597333-71.143619 72.801524a73.654857 73.654857 0 0 0 15.311238 45.129143l-55.783619 45.202286a147.797333 147.797333 0 0 1-30.72-90.35581c0-80.384 63.73181-145.578667 142.336-145.578666z m198.168381-86.040381c55.05219 57.904762 86.503619 136.167619 86.503619 219.501714 0 80.359619-29.257143 155.989333-80.700953 213.211429l-5.802666 6.290285-51.004953-50.736762c42.179048-44.422095 66.340571-104.496762 66.340572-168.764952 0-61.464381-22.089143-119.125333-60.952381-162.864762l-5.388191-5.875809 51.004953-50.761143z m-420.035048 0l51.004953 50.761143c-42.179048 44.373333-66.340571 104.472381-66.340572 168.740571 0 61.464381 22.089143 119.125333 60.952381 162.864762l5.388191 5.90019-51.004953 50.736762C246.930286 673.596952 215.478857 595.334095 215.478857 512c0-80.359619 29.257143-155.989333 80.700953-213.211429l5.802666-6.290285z" p-id="22623" fill="currentColor"></path></svg>
