<svg t="1756778801287" class="icon" viewBox="0 0 1024 1024" version="1.1" xmlns="http://www.w3.org/2000/svg" p-id="46006" width="16" height="16"><path d="M497.800533 540.458667l433.809067-210.722134v-47.982933L497.92 71.202133 65.348267 282.914133l-0.725334 47.1296 433.1776 210.414934zM0 369.800533L1.962667 242.688 497.800533 0l497.809067 241.681067v128.119466L497.800533 611.6096 0 369.800533z" fill="currentColor" p-id="46007"></path><path d="M967.645867 719.172267l-36.036267 57.565866V736.682667l36.036267-17.493334z m-441.8816 241.800533H469.845333l27.963734-13.576533 27.963733 13.576533z m-461.653334-224.238933l-0.110933 40.192-36.036267-57.7536 36.1472 17.5616z m867.498667-373.154134h64v413.1584l-497.809067 241.809067L0 776.738133 1.186133 352l64 0.7424-1.0752 383.991467 433.6896 210.6624 433.809067-210.722134V363.579733zM27.963733 719.172267L64 776.917333l0.110933-40.192-36.1472-17.553066z m497.800534 241.800533H469.845333l27.963734-13.576533 27.963733 13.576533z m441.8816-241.800533l-36.036267 57.565866V736.682667l36.036267-17.493334z m-469.845334 228.224l433.809067-210.722134V363.579733h64v413.1584l-497.809067 241.809067L0 776.738133 1.186133 352l64 0.7424-1.0752 383.991467 433.6896 210.6624z" fill="currentColor" p-id="46008"></path><path d="M967.645867 514.048l-36.036267 57.565867v-40.064l36.036267-17.501867zM525.764267 755.848533H469.845333l27.963734-13.576533 27.963733 13.576533zM64 572.245333l-36.036267-58.197333 36.437334 17.698133L64 572.245333z m867.6096-138.990933l64-1.2544v139.613867L497.800533 813.422933 0 571.613867l1.186133-120.098134 64 0.631467-0.7936 79.598933 433.408 210.517334 433.809067-210.7136V433.2544zM27.963733 514.048L64 572.245333l0.392533-40.4992-36.437333-17.698133z m497.800534 241.800533H469.845333l27.963734-13.576533 27.963733 13.576533z m441.8816-241.800533l-36.036267 57.565867v-40.064l36.036267-17.501867z m-469.845334 228.224l433.809067-210.722133V433.2544l64-1.2544v139.613867L497.800533 813.422933 0 571.613867l1.186133-120.098134 64 0.631467-0.7936 79.598933 433.408 210.517334z" fill="currentColor" p-id="46009"></path></svg>
