<svg t="1756778850724" class="icon" viewBox="0 0 1024 1024" version="1.1" xmlns="http://www.w3.org/2000/svg" p-id="48253" width="16" height="16"><path d="M512 0C246.6304 0 46.5408 100.0448 46.5408 232.704v558.5408c0 132.7104 200.0896 232.704 465.4592 232.704s465.4592-100.0448 465.4592-232.704V232.704C977.4592 100.0448 777.3696 0 512 0z m372.3776 512c0 56.9856-145.0496 139.6224-372.3776 139.6224S139.6224 568.9856 139.6224 512V375.7056C223.1296 430.9504 356.3008 465.408 512 465.408s288.8192-34.4576 372.3776-89.7024V512zM512 93.0816c227.328 0 372.3776 82.688 372.3776 139.6224S739.328 372.3264 512 372.3264 139.6224 289.6896 139.6224 232.704 284.672 93.0816 512 93.0816z m0 837.8368c-227.328 0-372.3776-82.688-372.3776-139.6224v-136.2944c83.5072 55.2448 216.6784 89.7024 372.3776 89.7024s288.8192-34.4576 372.3776-89.7024v136.2944c0 56.9856-145.0496 139.6224-372.3776 139.6224z" p-id="48254" fill="currentColor"></path></svg>
