<svg t="1756778972152" class="icon" viewBox="0 0 1024 1024" version="1.1" xmlns="http://www.w3.org/2000/svg" p-id="2338" width="16" height="16"><path d="M85.333333 85.333333h216.618667A167.509333 167.509333 0 0 1 469.333333 252.714667V469.333333H252.714667A167.509333 167.509333 0 0 1 85.333333 301.952V85.333333z m85.333334 85.333334v131.285333C170.666667 347.178667 207.530667 384 252.714667 384H384V252.714667C384 207.488 347.136 170.666667 301.952 170.666667H170.666667z m551.381333 0C676.821333 170.666667 640 207.530667 640 252.714667V384h131.285333C816.512 384 853.333333 347.136 853.333333 301.952V170.666667h-131.285333zM554.666667 252.714667A167.509333 167.509333 0 0 1 722.048 85.333333H938.666667v216.618667A167.509333 167.509333 0 0 1 771.285333 469.333333H554.666667V252.714667zM252.714667 640C207.488 640 170.666667 676.864 170.666667 722.048V853.333333h131.285333C347.178667 853.333333 384 816.469333 384 771.285333V640H252.714667zM85.333333 722.048A167.509333 167.509333 0 0 1 252.714667 554.666667H469.333333v216.618666A167.509333 167.509333 0 0 1 301.952 938.666667H85.333333v-216.618667zM554.666667 554.666667h216.618666A167.509333 167.509333 0 0 1 938.666667 722.048V938.666667h-216.618667A167.509333 167.509333 0 0 1 554.666667 771.285333V554.666667z m85.333333 85.333333v131.285333c0 45.226667 36.864 82.048 82.048 82.048H853.333333v-131.285333c0-45.226667-36.821333-82.048-82.048-82.048H640z" fill="currentColor" p-id="2339"></path></svg>
