<svg t="1756202585588" class="icon" viewBox="0 0 1024 1024" version="1.1" xmlns="http://www.w3.org/2000/svg" p-id="976" width="16" height="16"><path d="M528.41 947.5c-136.23 0-284.84-75.5-329.63-232.22-0.53-1.84-0.79-3.76-0.79-5.68 0-38.92 23.53-112.56 112.58-112.56 9.63 0 17.98 6.66 20.19 16.04 0.28 1.27 30.99 128.99 120.31 168.98 47.78 21.4 105.34 14.06 171.06-21.77 56.54-30.85 93.12-74.65 108.68-130.18 23.08-82.3-5.14-174.56-39.25-233.45-7.85-13.55-31.36-37.41-54.7-55.47-8.31-6.45-46.51-18.51-56.97-19.44-18.05-1.6-30.26-1.46-35.32-0.83-80.17 10.03-133.19 36.92-145.47 73.76-16.61 49.81-92.98 68.72-156.98 58.4-69.71-11.31-113-53.79-113-110.88 0-6.37 2.95-12.38 7.95-16.31 5-3.94 11.57-5.36 17.76-3.8 23.99 5.95 76.27 10.9 90.08-10.03 5.4-27.09 42.22-174.28 203.43-174.28 48.81 0 99.27 0 149.09 8.11 44.81-0.14 114.91-9.43 133.84-30.06 3.64-3.99 3.94-7 3.7-9.67-0.75-8.21 2.97-16.47 9.97-22.03 8.68-6.88 20.61-8.48 32.63-4.45 39.47 13.21 66.09 37.57 74.97 68.56 11.27 39.39-5.97 87.17-51.22 142.05h-0.02c-0.22 0.28-0.42 0.53-0.61 0.79 5.18 8.74 11.19 18.02 17.44 27.74 22.82 35.4 51.24 79.46 63.72 133.54 36.68 158.95-10.64 269.26-56.79 333.81-70.72 98.94-181.44 151.36-259.79 159.45-12.1 1.23-24.44 1.88-36.86 1.88zM239.49 706.87c43.76 146.99 194.47 210.88 321.55 197.52 69.11-7.12 167.12-53.89 230.34-142.32 59.07-82.62 76.39-186.5 50.11-300.41-10.84-47.01-35.99-86-58.16-120.41-8.54-13.21-16.59-25.71-23.3-37.83-2.1-3.8-2.95-8.19-2.45-12.52 1.19-9.87 5.16-18.96 11.79-26.99 35.56-43.09 50.53-79.14 43.35-104.26-5.46-19.06-23.75-30.57-38.56-36.96-2.35 7.65-6.51 14.79-12.38 21.18-39.08 42.56-153.06 43.74-166.09 43.45-1.11 0-2.25-0.1-3.34-0.28-47.03-7.83-96.33-7.83-144.02-7.83-141.14 0-162.35 137.12-163.17 142.96a20.84 20.84 0 0 1-1.98 6.33c-20.35 40.64-72.97 42.69-107.42 39.06 14.22 31.4 53.89 41.51 72.99 44.61 53.83 8.82 103.94-9.27 111.06-30.61 17.76-53.35 81.57-89.48 179.64-101.76 9.69-1.19 25.75-0.97 44.12 0.67 13.96 1.25 61.36 14.53 78.67 27.96 23.55 18.25 52.84 46.18 65.16 67.47 49.66 85.75 65.85 184.96 43.29 265.38-18.69 66.72-62 118.99-128.74 155.39-77.74 42.4-147.72 50.23-208.02 23.12-87.15-39.17-126.17-139.55-138.76-180.15-49.41 7.97-55.07 54.24-55.68 67.23zM785.35 277.1h0.2-0.2z m-9.1-174.66c0 0.08 0 0.14 0.02 0.22-0.02-0.08-0.02-0.14-0.02-0.22z" p-id="977"></path><path d="M367.17 287.87m-24.15 0a24.15 24.15 0 1 0 48.3 0 24.15 24.15 0 1 0-48.3 0Z" p-id="978"></path></svg>
