<svg t="1756778275621" class="icon" viewBox="0 0 1024 1024" version="1.1" xmlns="http://www.w3.org/2000/svg" p-id="12098" width="16" height="16"><path d="M597.333 640h341.334a42.667 42.667 0 0 0 42.666-42.667V426.667A42.667 42.667 0 0 0 938.667 384H597.333a42.667 42.667 0 0 0-42.666 42.667v42.666H256v-128h298.667a42.667 42.667 0 0 0 42.666-42.666V85.333a42.667 42.667 0 0 0-42.666-42.666H85.333a42.667 42.667 0 0 0-42.666 42.666v213.334a42.667 42.667 0 0 0 42.666 42.666h85.334v512A42.667 42.667 0 0 0 213.333 896h341.334v42.667a42.667 42.667 0 0 0 42.666 42.666h341.334a42.667 42.667 0 0 0 42.666-42.666V768a42.667 42.667 0 0 0-42.666-42.667H597.333A42.667 42.667 0 0 0 554.667 768v42.667H256v-256h298.667v42.666A42.667 42.667 0 0 0 597.333 640zM640 469.333h256v85.334H640zM128 256V128h384v128z m512 554.667h256V896H640z" p-id="12099" fill="currentColor"></path></svg>
